<?xml version="1.0" encoding="UTF-8"?>
<svg width="189px" height="96px" viewBox="0 0 189 96" version="1.1" xmlns="http://www.w3.org/2000/svg" xmlns:xlink="http://www.w3.org/1999/xlink">
    <title>Group</title>
    <g id="Page-1" stroke="none" stroke-width="1" fill="none" fill-rule="evenodd">
        <g id="Group" transform="translate(0.930000, 0.000000)" fill="#1167B1">
            <path d="M26.67,74.33 C30.87,74.33 34.58,73.595 37.8,72.125 C41.02,70.655 43.7266667,68.66 45.92,66.14 L49.2630332,61.94 L44.0356175,50.1075472 C43.6807291,51.2683973 42.539538,54.2154511 39.9322072,57.0300982 C37.4868438,59.6698993 34.178244,61.4882926 33.32,61.94 C31.5466667,62.8733333 29.47,63.34 27.09,63.34 C25.0366667,63.34 23.1466667,62.9666667 21.42,62.22 C19.6933333,61.4733333 18.2116667,60.435 16.975,59.105 C15.7383333,57.775 14.77,56.1766667 14.07,54.31 C13.37,52.4433333 13.02,50.39 13.02,48.15 C13.02,45.9566667 13.37,43.9383333 14.07,42.095 C14.77,40.2516667 15.75,38.6533333 17.01,37.3 C18.27,35.9466667 19.775,34.885 21.525,34.115 C23.275,33.345 25.2,32.96 27.3,32.96 C29.2133333,32.96 31.08,33.3333333 32.9,34.08 C34.72,34.8266667 36.19,35.97 37.31,37.51 L45.43,29.39 C43.33,27.01 40.5883333,25.2016667 37.205,23.965 C33.8216667,22.7283333 30.38,22.11 26.88,22.11 C23.1,22.11 19.5766667,22.7166667 16.31,23.93 C13.0433333,25.1433333 10.1966667,26.8816667 7.77,29.145 C5.34333333,31.4083333 3.44166667,34.15 2.065,37.37 C0.688333333,40.59 0,44.1833333 0,48.15 C0,52.0233333 0.676666667,55.57 2.03,58.79 C3.38333333,62.01 5.25,64.775 7.63,67.085 C10.01,69.395 12.8216667,71.18 16.065,72.44 C19.3083333,73.7 22.8433333,74.33 26.67,74.33 Z" id="C" fill-rule="nonzero"></path>
            <text id="oop." font-family="AvenirNext-Bold, Avenir Next" font-size="70" font-weight="bold" letter-spacing="-1.08">
                <tspan x="41.115" y="70">o</tspan>
                <tspan x="84.275" y="70" letter-spacing="-2.68">o</tspan>
                <tspan x="125.835" y="70" letter-spacing="-2.48">p.</tspan>
            </text>
        </g>
    </g>
</svg>